<svg width="841.9" height="595.3" xmlns="http://www.w3.org/2000/svg">

 <g>
  <title>Layer 1</title>
  <ellipse stroke-dasharray="5,5" stroke="#000" ry="200" rx="200" id="svg_5" cy="300" cx="421" stroke-width="0" fill="#7AD6CA"/>
  <text transform="matrix(0.945491 0 0 1 -82.2054 0)" stroke="#000" xml:space="preserve" text-anchor="start" font-family="'Archivo'" font-size="200" id="svg_7" y="360.35001" x="362.7062" stroke-width="0" fill="#000000">S.C</text>
  <path stroke="#000" id="svg_8" d="m479.34219,90.8572l0,-23.24693l-0.00922,0c-0.00922,-28.69364 -26.14053,-51.94877 -58.38297,-51.94877s-58.38297,23.26334 -58.38297,51.95697l0,0l0,23.23873l-21.11705,0l0,99.8043l159.00003,0l0,-99.8043l-21.10783,0zm-98.33115,-23.23873c0,0 0,0 0,0c0,-19.60486 17.91861,-35.55123 39.93896,-35.55123c22.03879,0 39.9574,15.94638 39.9574,35.54303c0,0 0,0 0,0l0,23.24693l-79.89636,0l0,-23.23873z" stroke-width="0" fill="#000000"/>
  <path id="svg_10" d="m482.78572,551.37128c0,2.20149 -1.73469,3.98509 -3.87584,3.98509l-24.81986,0c-2.14114,0 -3.87584,-1.78359 -3.87584,-3.98509l0,-54.21696c0,-2.20132 1.73469,-3.98509 3.87584,-3.98509l24.81986,0c2.14115,0 3.87584,1.78376 3.87584,3.98509l0,54.21696zm-91.88998,0c0,2.20149 -1.73503,3.98509 -3.87584,3.98509l-24.8202,0c-2.14081,0 -3.87584,-1.78359 -3.87584,-3.98509l0,-54.21696c0,-2.20132 1.73503,-3.98509 3.87584,-3.98509l24.8202,0c2.14081,0 3.87584,1.78376 3.87584,3.98509l0,54.21696zm29.98575,-147.01488c-44.91279,0 -81.37156,37.14742 -81.93148,83.18523l14.21902,0c0.46107,-38.05076 30.59526,-68.752 67.71246,-68.752c37.1172,0 67.2514,30.70124 67.70708,68.752l14.21869,0c-0.55421,-46.03781 -37.02371,-83.18523 -81.92577,-83.18523l0.00001,0zm-81.81621,125.35631l13.961,0l0,-42.25583l-13.961,0l0,42.25583zm149.40804,-42.26152l0,42.25601l14.47668,0l0,-42.25601l-14.47668,0z" stroke-width="0" stroke="#000" fill="#000000"/>
 </g>
</svg>